<svg width="30" height="29" viewBox="0 0 30 29" fill="none" xmlns="http://www.w3.org/2000/svg">
<path d="M28.8 0H1.2C0.53625 0 0 0.518375 0 1.16V27.84C0 28.4816 0.53625 29 1.2 29H28.8C29.4638 29 30 28.4816 30 27.84V1.16C30 0.518375 29.4638 0 28.8 0ZM27.6 26.68H20.6963V17.7698H24.5963L25.1813 13.3944H20.6963V10.5995C20.6963 9.33075 21.06 8.468 22.9388 8.468H25.335V4.553C24.9188 4.49863 23.4975 4.379 21.84 4.379C18.3825 4.379 16.0163 6.41987 16.0163 10.1645V13.3907H12.1088V17.7661H16.02V26.68H2.4V2.32H27.6V26.68Z" fill="white"/>
</svg>
