<svg id="Layer_1" data-name="Layer 1" xmlns="http://www.w3.org/2000/svg" xmlns:xlink="http://www.w3.org/1999/xlink" viewBox="0 0 259.84 69.46"><defs><style>.cls-1{fill:#006462;}.cls-2{fill:url(#linear-gradient);}.cls-3{fill:url(#linear-gradient-2);}.cls-4{fill:url(#linear-gradient-3);}.cls-5{fill:url(#linear-gradient-4);}.cls-6{fill:url(#linear-gradient-5);}</style><linearGradient id="linear-gradient" x1="-3.44" y1="63.76" x2="239.53" y2="63.76" gradientTransform="matrix(1, 0, 0, -1, 0, 92.24)" gradientUnits="userSpaceOnUse"><stop offset="0" stop-color="#fff"/><stop offset="1"/></linearGradient><linearGradient id="linear-gradient-2" x1="-3.44" y1="54.74" x2="239.53" y2="54.74" xlink:href="#linear-gradient"/><linearGradient id="linear-gradient-3" x1="-3.44" y1="62.47" x2="239.53" y2="62.47" xlink:href="#linear-gradient"/><linearGradient id="linear-gradient-4" x1="-3.44" y1="55.02" x2="239.53" y2="55.02" xlink:href="#linear-gradient"/><linearGradient id="linear-gradient-5" x1="-3.44" y1="61.74" x2="239.53" y2="61.74" xlink:href="#linear-gradient"/></defs><path class="cls-1" d="M249.83,23.84V46.48a5.53,5.53,0,0,0,1.19,4c.8.81,2.17,1.15,4.13,1.15h4.69V57H254.1c-3.55,0-6.21-.81-8-2.45s-2.66-4.31-2.66-8V23.84h-5V18.59h5V8.93h6.37v9.66h10v5.25Z"/><path class="cls-2" d="M13.84,53.32A26.55,26.55,0,0,1,3.72,43.16,29.21,29.21,0,0,1,0,28.48,29.23,29.23,0,0,1,3.72,13.8,26.62,26.62,0,0,1,13.84,3.64,28.2,28.2,0,0,1,28,0,28.26,28.26,0,0,1,42.24,3.64,26.42,26.42,0,0,1,52.32,13.76,29.26,29.26,0,0,1,56,28.48,29.24,29.24,0,0,1,52.32,43.2,26.28,26.28,0,0,1,42.24,53.32,28.16,28.16,0,0,1,28,57,28.09,28.09,0,0,1,13.84,53.32Zm24.72-5.4a19,19,0,0,0,7.36-7.76,24.4,24.4,0,0,0,2.64-11.68,24.34,24.34,0,0,0-2.68-11.72A19.29,19.29,0,0,0,38.56,9,20.57,20.57,0,0,0,28,6.32,20.57,20.57,0,0,0,17.44,9a19.35,19.35,0,0,0-7.32,7.72A24.57,24.57,0,0,0,7.44,28.48a24.53,24.53,0,0,0,2.68,11.68,19.1,19.1,0,0,0,7.36,7.76A20.65,20.65,0,0,0,28,50.64,20.57,20.57,0,0,0,38.56,47.92Z"/><path class="cls-3" d="M98.85,18V56.4H92.48V50.73a12.28,12.28,0,0,1-5.08,4.58A15.5,15.5,0,0,1,80.23,57a17.13,17.13,0,0,1-8-1.86,13.51,13.51,0,0,1-5.67-5.56,18.37,18.37,0,0,1-2.06-9V18h6.3V39.67c0,3.78,1,6.69,2.87,8.71a10.2,10.2,0,0,0,7.82,3.1,10.43,10.43,0,0,0,8-3.15q2.94-3.15,2.94-9.17V18Z"/><path class="cls-4" d="M109.84,10.55a4.39,4.39,0,0,1,0-6.16,4.24,4.24,0,0,1,3.08-1.26,4,4,0,0,1,3,1.26,4.47,4.47,0,0,1,0,6.16,4,4,0,0,1-3,1.26A4.17,4.17,0,0,1,109.84,10.55ZM116,18V56.4h-6.37V18Z"/><path class="cls-5" d="M126.85,26.75a17.25,17.25,0,0,1,6.61-6.89,19.15,19.15,0,0,1,9.7-2.45q7.08,0,11.65,3.43a16.17,16.17,0,0,1,6.06,9.52H154a9.9,9.9,0,0,0-3.82-5.53,11.75,11.75,0,0,0-7-2,11.32,11.32,0,0,0-8.82,3.74Q131,30.32,131,37.18t3.36,10.71a11.24,11.24,0,0,0,8.82,3.78,11.89,11.89,0,0,0,7-2,10,10,0,0,0,3.85-5.6h6.86a16.84,16.84,0,0,1-6.19,9.41A18.44,18.44,0,0,1,143.16,57a19.05,19.05,0,0,1-9.7-2.45,17,17,0,0,1-6.61-6.93,22,22,0,0,1-2.38-10.5A21.77,21.77,0,0,1,126.85,26.75Z"/><path class="cls-6" d="M190.76,56.4l-15-16.92V56.4h-6.37V4.6h6.37V35.05l14.77-17h8.89l-18.06,19.1L199.44,56.4Z"/><path class="cls-1" d="M13.84,53.32A26.55,26.55,0,0,1,3.72,43.16,29.21,29.21,0,0,1,0,28.48,29.23,29.23,0,0,1,3.72,13.8,26.62,26.62,0,0,1,13.84,3.64,28.2,28.2,0,0,1,28,0,28.26,28.26,0,0,1,42.24,3.64,26.42,26.42,0,0,1,52.32,13.76,29.26,29.26,0,0,1,56,28.48,29.24,29.24,0,0,1,52.32,43.2,26.28,26.28,0,0,1,42.24,53.32,28.16,28.16,0,0,1,28,57,28.09,28.09,0,0,1,13.84,53.32Zm24.72-5.4a19,19,0,0,0,7.36-7.76,24.4,24.4,0,0,0,2.64-11.68,24.34,24.34,0,0,0-2.68-11.72A19.29,19.29,0,0,0,38.56,9,20.57,20.57,0,0,0,28,6.32,20.57,20.57,0,0,0,17.44,9a19.35,19.35,0,0,0-7.32,7.72A24.57,24.57,0,0,0,7.44,28.48a24.53,24.53,0,0,0,2.68,11.68,19.1,19.1,0,0,0,7.36,7.76A20.65,20.65,0,0,0,28,50.64,20.57,20.57,0,0,0,38.56,47.92Z"/><path class="cls-1" d="M98.85,18V56.4H92.48V50.73a12.28,12.28,0,0,1-5.08,4.58A15.5,15.5,0,0,1,80.23,57a17.13,17.13,0,0,1-8-1.86,13.51,13.51,0,0,1-5.67-5.56,18.37,18.37,0,0,1-2.06-9V18h6.3V39.67c0,3.78,1,6.69,2.87,8.71a10.2,10.2,0,0,0,7.82,3.1,10.43,10.43,0,0,0,8-3.15q2.94-3.15,2.94-9.17V18Z"/><path class="cls-1" d="M109.84,10.55a4.39,4.39,0,0,1,0-6.16,4.24,4.24,0,0,1,3.08-1.26,4,4,0,0,1,3,1.26,4.47,4.47,0,0,1,0,6.16,4,4,0,0,1-3,1.26A4.17,4.17,0,0,1,109.84,10.55ZM116,18V56.4h-6.37V18Z"/><path class="cls-1" d="M126.85,26.75a17.25,17.25,0,0,1,6.61-6.89,19.15,19.15,0,0,1,9.7-2.45q7.08,0,11.65,3.43a16.17,16.17,0,0,1,6.06,9.52H154a9.9,9.9,0,0,0-3.82-5.53,11.75,11.75,0,0,0-7-2,11.32,11.32,0,0,0-8.82,3.74Q131,30.32,131,37.18t3.36,10.71a11.24,11.24,0,0,0,8.82,3.78,11.89,11.89,0,0,0,7-2,10,10,0,0,0,3.85-5.6h6.86a16.84,16.84,0,0,1-6.19,9.41A18.44,18.44,0,0,1,143.16,57a19.05,19.05,0,0,1-9.7-2.45,17,17,0,0,1-6.61-6.93,22,22,0,0,1-2.38-10.5A21.77,21.77,0,0,1,126.85,26.75Z"/><path class="cls-1" d="M190.76,56.4l-15-16.92V56.4h-6.37V4.6h6.37V35.05l14.77-17h8.89l-18.06,19.1L199.44,56.4Z"/><path class="cls-1" d="M231.79,20.36c.07.07,0,.24,0,.44.1.54,1.05.83,2,1q.36,17.54.71,35.06c0,.51-1.17.93-2.63.93s-2.91-.46-2.91-1q.42-17.46.83-35C231.22,20.48,231.67,20.27,231.79,20.36Z"/><path class="cls-1" d="M231,23.7a2,2,0,0,0-.65-.72,4.47,4.47,0,0,0-1.13-.58c-.47-.22-1-.74-1.18-2.06L228,15.73c.06-.94.13-1.9.22-2.87.25-2.81.62-5.5,1.08-8.06h.35V15a3.38,3.38,0,0,0,0,.45c0,.37.13,1.06.32,1.07s.17-.06.32-.44L231,4.8h.73c-.06,3.41-.13,6.81-.19,10.21a4.86,4.86,0,0,0,0,.54c0,.47.24,1.08.43,1.07s.19-.11.32-.62l.43-11.2h.77c.19,0,.12,10,.09,10.21h0a4.68,4.68,0,0,0,0,.53c.06.48.26,1.08.44,1.07s.2-.14.32-.8l.21-11h.17c.31,1.93.46,2.75.51,3a.75.75,0,0,0,.06.3,4.87,4.87,0,0,1,.13.56,48.28,48.28,0,0,1,.43,6c0,1.14,0,2.28.1,3.41a6.28,6.28,0,0,1-.1,2.59A3.12,3.12,0,0,1,233.53,23a.9.9,0,0,0-.32.09.79.79,0,0,0-.32.63S231.1,23.94,231,23.7Z"/><path class="cls-1" d="M31.27,38.85a2.93,2.93,0,0,0-1.38,0,4.4,4.4,0,0,1-3-1.35,7.77,7.77,0,0,1-2.14-2.81,13.1,13.1,0,0,1-1.38-4.28,8.74,8.74,0,0,1,.19-4.31A4.61,4.61,0,0,1,25,23.66,3.8,3.8,0,0,1,28,23a5.14,5.14,0,0,1,1.36.59,9.15,9.15,0,0,1,1.76,1.33,13.5,13.5,0,0,1,2.22,2.78,14,14,0,0,1,1.45,3.11,7.7,7.7,0,0,1,.5,2.8A5.88,5.88,0,0,1,35,35.65,4.55,4.55,0,0,1,34,37.32a1.73,1.73,0,0,0-.45.65A2.5,2.5,0,0,1,31.27,38.85Z"/><path class="cls-1" d="M31.63,36c.1,0,.09.22.22.39.33.42,1.31.22,2.23-.09L51.61,66.62c.25.45-.58,1.39-1.86,2.09s-2.77,1-3,.5l-16.19-31C31.19,36.34,31.48,35.93,31.63,36Z"/></svg>