<svg width="31" height="29" viewBox="0 0 31 29" fill="none" xmlns="http://www.w3.org/2000/svg">
<path d="M15.4958 7.0601C11.0948 7.0601 7.54298 10.3828 7.54298 14.5C7.54298 18.6172 11.0948 21.9399 15.4958 21.9399C19.8968 21.9399 23.4487 18.6172 23.4487 14.5C23.4487 10.3828 19.8968 7.0601 15.4958 7.0601ZM15.4958 19.3354C12.6497 19.3354 10.3271 17.1625 10.3271 14.5C10.3271 11.8375 12.6497 9.66461 15.4958 9.66461C18.342 9.66461 20.6646 11.8375 20.6646 14.5C20.6646 17.1625 18.342 19.3354 15.4958 19.3354ZM23.7744 5.02147C22.7468 5.02147 21.9171 5.79775 21.9171 6.75902C21.9171 7.72029 22.7468 8.49657 23.7744 8.49657C24.8019 8.49657 25.6317 7.72392 25.6317 6.75902C25.632 6.53076 25.5842 6.30469 25.491 6.09375C25.3978 5.88281 25.261 5.69115 25.0884 5.52975C24.9159 5.36834 24.711 5.24037 24.4855 5.15315C24.2601 5.06593 24.0184 5.02118 23.7744 5.02147ZM30.9983 14.5C30.9983 12.4976 31.0177 10.5134 30.8975 8.51471C30.7773 6.19314 30.2111 4.13275 28.3964 2.4351C26.5779 0.733824 24.3793 0.207844 21.8977 0.0953926C19.7573 -0.0170583 17.6362 0.00107896 15.4997 0.00107896C13.3593 0.00107896 11.2383 -0.0170583 9.10176 0.0953926C6.62013 0.207844 4.41768 0.737451 2.60299 2.4351C0.784418 4.13637 0.222173 6.19314 0.10197 8.51471C-0.0182344 10.5171 0.00115335 12.5013 0.00115335 14.5C0.00115335 16.4987 -0.0182344 18.4866 0.10197 20.4853C0.222173 22.8069 0.788296 24.8673 2.60299 26.5649C4.42156 28.2662 6.62013 28.7922 9.10176 28.9046C11.2422 29.0171 13.3632 28.9989 15.4997 28.9989C17.6401 28.9989 19.7611 29.0171 21.8977 28.9046C24.3793 28.7922 26.5817 28.2625 28.3964 26.5649C30.215 24.8636 30.7773 22.8069 30.8975 20.4853C31.0215 18.4866 30.9983 16.5024 30.9983 14.5ZM27.586 23.0535C27.303 23.7137 26.9617 24.2071 26.415 24.7149C25.8683 25.2264 25.3448 25.5456 24.6391 25.8104C22.5995 26.5685 17.7564 26.398 15.4958 26.398C13.2352 26.398 8.38829 26.5685 6.3487 25.814C5.64299 25.5492 5.11564 25.23 4.57278 24.7185C4.02605 24.2071 3.68482 23.7174 3.40176 23.0572C2.59523 21.1455 2.77748 16.6148 2.77748 14.5C2.77748 12.3852 2.59523 7.85088 3.40176 5.94284C3.68482 5.28265 4.02605 4.78931 4.57278 4.28147C5.11952 3.77363 5.64299 3.45078 6.3487 3.18598C8.38829 2.43147 13.2352 2.60196 15.4958 2.60196C17.7564 2.60196 22.6034 2.43147 24.643 3.18598C25.3487 3.45078 25.876 3.77 26.4189 4.28147C26.9656 4.79294 27.3068 5.28265 27.5899 5.94284C28.3964 7.85088 28.2142 12.3852 28.2142 14.5C28.2142 16.6148 28.3964 21.1455 27.586 23.0535Z" fill="white"/>
</svg>
