<svg width="28" height="29" viewBox="0 0 28 29" fill="none" xmlns="http://www.w3.org/2000/svg">
<path d="M25.7495 0H2.2505C1.008 0 0 1.0386 0 2.31882V26.5312C0 27.8114 1.008 28.85 2.2505 28.85H25.7495C26.992 28.85 28 27.8114 28 26.5312V2.31882C28 1.0386 26.992 0 25.7495 0ZM25.7495 26.542C10.0765 26.5384 2.24 26.5348 2.24 26.5312C2.2435 10.3824 2.247 2.308 2.2505 2.308C17.9235 2.3116 25.76 2.31521 25.76 2.31882C25.7565 18.4676 25.753 26.542 25.7495 26.542ZM4.151 10.8151H8.3055V24.5838H4.151V10.8151ZM6.23 8.93267C7.5565 8.93267 8.638 7.82195 8.638 6.45158C8.638 6.12575 8.57572 5.80312 8.4547 5.5021C8.33369 5.20108 8.15632 4.92757 7.93271 4.69717C7.70911 4.46678 7.44365 4.28403 7.1515 4.15934C6.85935 4.03465 6.54622 3.97048 6.23 3.97048C5.91378 3.97048 5.60065 4.03465 5.3085 4.15934C5.01635 4.28403 4.75089 4.46678 4.52729 4.69717C4.30368 4.92757 4.12631 5.20108 4.0053 5.5021C3.88428 5.80312 3.822 6.12575 3.822 6.45158C3.8185 7.82195 4.8965 8.93267 6.23 8.93267ZM15.0605 17.7716C15.0605 15.9757 15.393 14.2375 17.5525 14.2375C19.6805 14.2375 19.712 16.2894 19.712 17.887V24.5838H23.863V17.0323C23.863 13.3251 23.086 10.4725 18.8825 10.4725C16.863 10.4725 15.5085 11.6157 14.952 12.6976H14.896V10.8151H10.9095V24.5838H15.0605V17.7716Z" fill="white"/>
</svg>
