<svg xmlns="http://www.w3.org/2000/svg" width="1544.63" height="1038.64" viewBox="0 0 1544.63 1038.64"><defs><style>.cls-1{stroke:#000;stroke-miterlimit:10;stroke-width:13px;}.cls-2{fill:#fff;}</style></defs><g id="Layer_10" data-name="Layer 10"><ellipse class="cls-1" cx="771.41" cy="662.53" rx="355.34" ry="310.55"/><ellipse class="cls-1" cx="468.32" cy="372.84" rx="36.03" ry="76.38" transform="translate(-70.69 633.23) rotate(-64.31)"/><ellipse class="cls-1" cx="1100.49" cy="662.53" rx="76.38" ry="36.03" transform="matrix(0.96, -0.29, 0.29, 0.96, -146.44, 353.98)"/><ellipse class="cls-1" cx="772.32" cy="481.23" rx="406.69" ry="192.21"/><path class="cls-2" d="M1163.56,473.5c1.71,85.42-208,176.09-391.24,177s-394-87.89-393.07-173.31,214-166.38,393.07-166.77C949.58,310,1161.86,388.26,1163.56,473.5Z"/><path d="M492.1,499.46a78.51,78.51,0,0,1,19.35-44.54C547,414.6,614,427.18,643,468.56a176.36,176.36,0,0,0-20.17-12.21c-27-14-60.63-19-88.31-5-19.74,9.92-33.18,28.22-42.38,48.1Z"/><path d="M1082.41,448.14a47.76,47.76,0,0,1,2.82,36c-7,22.34-30.57,35.72-53.28,34.75a55.35,55.35,0,0,1-26.82-7.94c10.26.26,19.84.07,29.7-2.24,17.78-3.88,34.57-14.55,41.79-31.75,3.93-8.95,5.29-18.77,5.79-28.8Z"/><path d="M772.32,526.7c.68,24.7-9.38,51.7-31.44,65-19.93,11.9-45.31,8.16-63.16-5.67a72.74,72.74,0,0,1-20.35-23.77c8,6.37,15.86,12.12,24.87,16.51,19.2,9.9,42.84,10.94,59.7-3.19,15.07-12.18,23.45-31,30.38-48.84Z"/><path d="M734.5,383.59C752.77,367,779.8,357,804.24,365c22,7.33,35.75,29,36.91,51.56a72.67,72.67,0,0,1-4.73,30.93c-.4-10.23-1.17-19.92-3.71-29.62-5-21-19.67-39.6-41.37-43.16-19.07-3.47-38.79,2.45-56.84,8.85Z"/><path d="M837.93,511c9.51-10.58,24.17-17.27,38.58-15.83,16.24,1.69,28.68,14,31.64,29.86a43.68,43.68,0,0,1-3.75,27.66c-2.36-19.35-8.53-40.82-29.73-45.34-12.15-2.54-24.79.76-36.74,3.65Z"/><path d="M680.08,450.5c10.13-5.62,22.83-1.77,32.28,3.55,19.8,11.41,36.76,35.16,37.24,58.43-5.68-7.57-11-14.77-17-21.83-12.47-14.42-32.87-37.86-52.49-40.15Z"/><path d="M740,65.63c-6.77-2.46-53.85,54.25-42.48,112.4,6.66,34,27.14,36.83,43.05,81.55,19,53.51,5.21,93.1,10.82,93.9,9.08,1.3,31.41-98.85,17.16-144-8.7-27.52-20.13-31.79-27-64.9C732.55,100.48,744.91,67.4,740,65.63Z"/><path d="M635,209.59c-4.26-1.5-28.45,22.9-27.15,51.83,1.46,32.4,33.7,43.74,34.41,82.8.28,14.9-4.22,24-3.15,24.27,2.37.59,28.2-43.09,14.14-79.78-5.79-15.09-13.83-17.29-18.2-35.49C629.13,228.77,638.37,210.79,635,209.59Z"/><path d="M873.48,199.89c-4.26-1.49-28.46,22.9-27.15,51.83,1.46,32.4,33.7,43.74,34.41,82.8.27,14.9-4.23,24-3.15,24.27,2.36.59,28.2-43.09,14.14-79.78-5.79-15.09-13.83-17.28-18.2-35.49C867.66,219.07,876.9,201.09,873.48,199.89Z"/></g></svg>