<svg xmlns="http://www.w3.org/2000/svg" width="1302.71" height="918.83" viewBox="0 0 1302.71 918.83"><defs><style>.cls-1,.cls-3{fill:#fff;}.cls-1,.cls-2{stroke:#000;stroke-miterlimit:10;stroke-width:13px;}.cls-2{fill:none;}</style></defs><g id="Layer_4" data-name="Layer 4"><rect class="cls-1" x="586.66" y="148.82" width="129.4" height="21.83" rx="3.83"/><path class="cls-2" d="M827.53,159.74V758.41A54.54,54.54,0,0,1,774,813c-31.24,1.59-244.2,0-244.2,0a54.57,54.57,0,0,1-54.57-54.56V159.74a54.58,54.58,0,0,1,54.57-54.57H773A54.57,54.57,0,0,1,827.53,159.74Z"/><polygon class="cls-2" points="801.03 205.17 801.03 712.98 791.5 712.98 621.64 712.98 501.69 712.98 501.69 205.17 801.03 205.17"/><circle class="cls-1" cx="651.36" cy="759.04" r="23.54"/><rect x="545.26" y="322.34" width="73.26" height="73.26"/><rect class="cls-3" x="554.71" y="334.16" width="51.99" height="51.99"/><rect x="566.52" y="343.61" width="30.72" height="33.08"/><rect x="684.68" y="322.34" width="73.26" height="73.26"/><rect class="cls-3" x="694.14" y="334.16" width="51.99" height="51.99"/><rect x="705.95" y="343.61" width="30.72" height="33.08"/><rect x="545.26" y="464.13" width="73.26" height="73.26"/><rect class="cls-3" x="554.71" y="475.95" width="51.99" height="51.99"/><rect x="566.52" y="485.4" width="30.72" height="33.08"/><rect x="702.13" y="478.31" width="41.63" height="41.63"/><rect class="cls-3" x="707.5" y="485.03" width="29.55" height="29.55"/><rect x="714.22" y="490.4" width="17.46" height="18.8"/><rect x="625.6" y="322.34" width="26" height="9.45"/><rect x="639.78" y="322.34" width="11.82" height="18.91"/><rect x="629.5" y="369.91" width="10.28" height="9.45"/><rect x="639.72" y="360.45" width="10.28" height="9.45"/><rect x="653.9" y="343.91" width="10.28" height="9.45"/><rect x="663.42" y="355.43" width="9.45" height="42.54"/><rect x="651.6" y="379.06" width="9.45" height="33.08" transform="translate(1051.93 -260.73) rotate(90)"/><rect x="639.78" y="379.06" width="9.45" height="21.27"/><rect x="627.9" y="398.87" width="10.28" height="9.45"/><rect x="545.26" y="407.42" width="9.45" height="37.81"/><rect x="554.71" y="416.87" width="9.45" height="28.36"/><rect x="567.71" y="420.41" width="9.45" height="21.27" transform="translate(141.38 1003.48) rotate(-90)"/><rect x="575.98" y="426.32" width="7.09" height="23.63"/><rect x="587.79" y="412.14" width="9.45" height="18.91" transform="translate(170.92 1014.11) rotate(-90)"/><rect x="592.52" y="402.69" width="9.45" height="18.91" transform="translate(1194.49 824.28) rotate(180)"/><rect x="583" y="449.3" width="10.28" height="9.45"/><rect x="600.79" y="432.23" width="7.09" height="23.63" transform="translate(160.29 1048.38) rotate(-90)"/><rect x="616.09" y="449.3" width="9.52" height="7.74"/><rect x="616.15" y="419.23" width="9.45" height="21.27"/><rect x="624.42" y="425.14" width="9.45" height="21.27" transform="translate(193.37 1064.92) rotate(-90)"/><rect x="644.83" y="419.43" width="9.52" height="9.25"/><rect x="654.28" y="428.13" width="9.52" height="9.25"/><rect x="663.74" y="418.68" width="9.52" height="9.25"/><rect x="672.87" y="397.96" width="9.45" height="21.27"/><rect x="681.14" y="403.87" width="9.45" height="21.27" transform="translate(271.36 1100.37) rotate(-90)"/><rect x="703.59" y="393.24" width="9.45" height="23.63" transform="translate(303.26 1113.37) rotate(-90)"/><rect x="733.27" y="404.5" width="9.52" height="9.25"/><rect x="741.4" y="414.51" width="9.45" height="18.91"/><rect x="731.95" y="433.41" width="9.45" height="23.63"/><rect x="740.36" y="456.49" width="9.52" height="9.25"/><rect x="726.04" y="458.22" width="7.09" height="23.63" transform="translate(1199.63 -259.54) rotate(90)"/><rect x="710.68" y="447.59" width="7.09" height="18.91" transform="translate(1428.45 914.09) rotate(180)"/><rect x="679.96" y="438.14" width="9.45" height="23.63" transform="translate(1369.37 899.91) rotate(180)"/><rect x="666.6" y="440.55" width="7.24" height="7.04"/><rect x="653.96" y="449.95" width="9.45" height="30.72" transform="translate(1317.38 930.63) rotate(180)"/><rect x="648.05" y="444.05" width="9.45" height="21.27" transform="translate(198.1 1107.46) rotate(-90)"/><rect x="677.19" y="467.65" width="8.53" height="8.3"/><rect x="697.32" y="420.14" width="8.63" height="8.39"/><rect x="707.22" y="431.53" width="8.63" height="8.39"/><rect x="684.68" y="478.31" width="9.45" height="35.45" transform="translate(1378.82 992.07) rotate(180)"/><rect x="623.24" y="480.68" width="11.82" height="23.63" transform="translate(1258.3 984.98) rotate(180)"/><rect x="634.01" y="503.58" width="8.53" height="8.3"/><rect x="645.82" y="494.13" width="8.53" height="8.3"/><rect x="655.28" y="503.58" width="8.53" height="8.3"/><rect x="663.42" y="513.76" width="9.45" height="21.27" transform="translate(1336.28 1048.79) rotate(180)"/><rect x="671.69" y="507.85" width="9.45" height="21.27" transform="translate(157.93 1194.9) rotate(-90)"/></g></svg>