<svg id="Layer_1" data-name="Layer 1" xmlns="http://www.w3.org/2000/svg" width="77.71" height="77.11" viewBox="0 0 77.71 77.11"><defs><style>.cls-1{fill:#006462;}</style></defs><path class="cls-1" d="M58.85,5c.73,0,1.62.47,3.18,1.69C65,9,69.83,12.75,71.72,17c2,4.42,2.58,14.89-15.45,35.33A69.91,69.91,0,0,1,34.5,68.36c-4.93,2.33-8.14,3.75-11.72,3.75A14,14,0,0,1,21,72c-7-.86-11.41-6.21-14-9.4-.76-.92-2-2.58-1.93-3.43a3.37,3.37,0,0,1,1-1.79L16.63,46.81a1.91,1.91,0,0,1,2.68,0l.05,0,.05,0,5.82,5.53,2.88,2.72,2.6,2.48L33.89,56A53.9,53.9,0,0,0,56.3,33.55L58,30.28l-2.61-2.61L51,23.25l-4.42-4.41a1.93,1.93,0,0,1,0-2.71l1-1c1.16-1,3.49-3.39,9.38-9.37A3.5,3.5,0,0,1,58.74,5h.11m0-5h-.36A8.47,8.47,0,0,0,53.6,2s-9.27,9.41-9.54,9.53l-1,1a6.9,6.9,0,0,0,0,9.78l8.83,8.84a49,49,0,0,1-8.13,11.18,49.1,49.1,0,0,1-12.2,9.15q-4.35-4.12-8.69-8.26a6.92,6.92,0,0,0-9.77,0L2.52,53.84A8.07,8.07,0,0,0,0,58.66c-.19,1.9.45,4,3.05,7.11C6,69.3,11.4,75.85,20.37,77a20.11,20.11,0,0,0,2.41.15c4.77,0,8.74-1.82,13.85-4.22A74.46,74.46,0,0,0,60,55.61c4.74-5.39,22.84-25.91,16.26-40.67-2.39-5.37-7.9-9.65-11.18-12.2C63.12,1.2,61.21,0,58.85,0Z"/></svg>