<svg xmlns="http://www.w3.org/2000/svg" width="1055.87" height="783.59" viewBox="0 0 1055.87 783.59"><defs><style>.cls-1,.cls-2,.cls-3,.cls-5{stroke:#000;stroke-miterlimit:10;}.cls-1,.cls-2,.cls-5{stroke-width:13px;}.cls-2,.cls-3,.cls-4{fill:#fff;}.cls-3{stroke-width:7px;}.cls-5{fill:none;}</style></defs><g id="Layer_4" data-name="Layer 4"><rect class="cls-1" x="638.37" y="364.79" width="38.08" height="313.4" rx="6.64"/><rect class="cls-1" x="778.23" y="463.7" width="38.08" height="313.4" rx="6.64"/><ellipse class="cls-2" cx="527.94" cy="435.1" rx="521.44" ry="117.66"/><rect class="cls-1" x="242.96" y="463.7" width="38.08" height="313.4" rx="6.64"/><rect class="cls-1" x="411.38" y="364.79" width="38.08" height="313.4" rx="6.64"/><rect class="cls-3" x="615.47" y="171.38" width="139.73" height="174.48"/><rect x="636.85" y="209.81" width="35.78" height="35.78"/><rect class="cls-4" x="641.47" y="215.59" width="25.39" height="25.39"/><rect x="647.24" y="220.2" width="15" height="16.16"/><rect x="704.95" y="209.81" width="35.78" height="35.78"/><rect class="cls-4" x="709.57" y="215.59" width="25.39" height="25.39"/><rect x="715.34" y="220.2" width="15" height="16.16"/><rect x="636.85" y="279.07" width="35.78" height="35.78"/><rect class="cls-4" x="641.47" y="284.84" width="25.39" height="25.39"/><rect x="647.24" y="289.45" width="15" height="16.16"/><rect x="713.47" y="285.99" width="20.33" height="20.33"/><rect class="cls-4" x="716.09" y="289.27" width="14.43" height="14.43"/><rect x="719.37" y="291.9" width="8.53" height="9.18"/><rect x="676.09" y="209.81" width="12.7" height="4.62"/><rect x="683.02" y="209.81" width="5.77" height="9.23"/><rect x="678" y="233.05" width="5.02" height="4.62"/><rect x="682.99" y="228.43" width="5.02" height="4.62"/><rect x="689.91" y="220.35" width="5.02" height="4.62"/><rect x="694.56" y="225.97" width="4.62" height="20.78"/><rect x="688.79" y="237.52" width="4.62" height="16.16" transform="translate(936.69 -445.5) rotate(90)"/><rect x="683.02" y="237.52" width="4.62" height="10.39"/><rect x="677.22" y="247.19" width="5.02" height="4.62"/><rect x="636.85" y="251.37" width="4.62" height="18.47"/><rect x="641.47" y="255.98" width="4.62" height="13.85"/><rect x="647.82" y="257.71" width="4.62" height="10.39" transform="translate(387.22 913.03) rotate(-90)"/><rect x="651.86" y="260.6" width="3.46" height="11.54"/><rect x="657.63" y="253.67" width="4.62" height="9.23" transform="translate(401.64 918.23) rotate(-90)"/><rect x="659.94" y="249.06" width="4.62" height="9.23" transform="translate(1324.49 507.35) rotate(180)"/><rect x="655.29" y="271.82" width="5.02" height="4.62"/><rect x="663.98" y="263.48" width="3.46" height="11.54" transform="translate(396.45 934.96) rotate(-90)"/><rect x="671.45" y="271.82" width="4.65" height="3.78"/><rect x="671.48" y="257.14" width="4.62" height="10.39"/><rect x="675.52" y="260.02" width="4.62" height="10.39" transform="translate(412.61 943.04) rotate(-90)"/><rect x="685.48" y="257.23" width="4.65" height="4.52"/><rect x="690.1" y="261.48" width="4.65" height="4.52"/><rect x="694.72" y="256.87" width="4.65" height="4.52"/><rect x="699.18" y="246.75" width="4.62" height="10.39"/><rect x="703.22" y="249.63" width="4.62" height="10.39" transform="translate(450.7 960.36) rotate(-90)"/><rect x="714.18" y="244.44" width="4.62" height="11.54" transform="translate(466.28 966.7) rotate(-90)"/><rect x="728.68" y="249.94" width="4.65" height="4.52"/><rect x="732.65" y="254.83" width="4.62" height="9.23"/><rect x="728.03" y="264.06" width="4.62" height="11.54"/><rect x="732.14" y="275.33" width="4.65" height="4.52"/><rect x="725.15" y="276.18" width="3.46" height="11.54" transform="translate(1008.83 -444.93) rotate(90)"/><rect x="717.65" y="270.99" width="3.46" height="9.23" transform="translate(1438.75 551.21) rotate(180)"/><rect x="702.64" y="266.37" width="4.62" height="11.54" transform="translate(1409.9 544.28) rotate(180)"/><rect x="696.12" y="267.55" width="3.54" height="3.44"/><rect x="689.95" y="272.14" width="4.62" height="15" transform="translate(1384.51 559.29) rotate(180)"/><rect x="687.06" y="269.26" width="4.62" height="10.39" transform="translate(414.92 963.82) rotate(-90)"/><rect x="701.29" y="280.79" width="4.17" height="4.05"/><rect x="711.12" y="257.58" width="4.21" height="4.1"/><rect x="715.96" y="263.14" width="4.21" height="4.1"/><rect x="704.95" y="285.99" width="4.62" height="17.31" transform="translate(1414.52 589.3) rotate(180)"/><rect x="674.94" y="287.15" width="5.77" height="11.54" transform="translate(1355.65 585.83) rotate(180)"/><rect x="680.2" y="298.33" width="4.17" height="4.05"/><rect x="685.97" y="293.72" width="4.17" height="4.05"/><rect x="690.59" y="298.33" width="4.17" height="4.05"/><rect x="694.56" y="303.3" width="4.62" height="10.39" transform="translate(1393.74 617) rotate(180)"/><rect x="698.6" y="300.42" width="4.62" height="10.39" transform="translate(395.3 1006.52) rotate(-90)"/><path class="cls-2" d="M488.89,60.46v592a54,54,0,0,1-53,53.94q1.38-8.21,2.87-16.52c2.67-14.94,14.47-55.21,14.47-62V602.14a30,30,0,0,0-30.05-30H410.05V569a24.2,24.2,0,0,0-24.21-24.2h-12a23.74,23.74,0,0,0-21.91-14.62H337.61V491.38a26.15,26.15,0,0,0-52.3,0V615c-1-1.4-2.43-3.39-4.26-5.73-.47-.59-.92-1.18-1.36-1.74-9.31-11.92-14.22-17.9-20.07-18.43-8.18-.75-16,7.38-19.35,13.92a26,26,0,0,0-1.83,4.51,27.75,27.75,0,0,0-1.13,9.41c0,.8,0,2,0,3.42.46,15.26,5.74,29.72,16.82,47.1,9,14.17,13.37,16.63,21.43,27.77,2.34,3.23,4.85,6.93,7.38,11.17h-88.5a54,54,0,0,1-54-54v-592a54,54,0,0,1,54-54H434.94A54,54,0,0,1,488.89,60.46Z"/><path class="cls-2" d="M453.26,602.14V627.8c0,6.83-11.8,47.1-14.47,62q-1.5,8.31-2.87,16.52-3.75,22.1-6.88,43.41H301.4A177.16,177.16,0,0,0,283,706.37c-2.53-4.24-5-7.94-7.38-11.17-8.06-11.14-12.39-13.6-21.43-27.77-11.08-17.38-16.36-31.84-16.82-47.1,0-1.43,0-2.62,0-3.42a27.75,27.75,0,0,1,1.13-9.41,26,26,0,0,1,1.83-4.51c3.39-6.54,11.17-14.67,19.35-13.92,5.85.53,10.76,6.51,20.07,18.43.44.56.89,1.15,1.36,1.74,1.83,2.34,3.28,4.33,4.26,5.73V491.38a26.15,26.15,0,0,1,52.3,0v38.81H351.9a23.74,23.74,0,0,1,21.91,14.62h12A24.2,24.2,0,0,1,410.05,569v3.08h13.16A30,30,0,0,1,453.26,602.14Z"/><line class="cls-5" x1="337.61" y1="530.19" x2="336.47" y2="593.78"/><line class="cls-5" x1="373.8" y1="544.81" x2="373.8" y2="593.05"/><path class="cls-2" d="M462.68,105.38V607.5h-9.42v-5.36a30,30,0,0,0-30.05-30H410.05V569a24.2,24.2,0,0,0-24.21-24.2h-12a23.74,23.74,0,0,0-21.91-14.62H337.61V491.38a26.15,26.15,0,0,0-52.3,0V607.5h-5.62c-9.31-11.92-14.22-17.9-20.07-18.43-8.18-.75-16,7.38-19.35,13.92a26,26,0,0,0-1.83,4.51H166.7V105.38Z"/><rect class="cls-1" x="250.72" y="49.67" width="127.95" height="21.58" rx="3.83"/><rect x="206.06" y="219.38" width="74.84" height="74.84"/><rect class="cls-4" x="215.72" y="231.46" width="53.11" height="53.11"/><rect x="227.79" y="241.11" width="31.38" height="33.8"/><rect x="348.5" y="219.38" width="74.84" height="74.84"/><rect class="cls-4" x="358.15" y="231.46" width="53.11" height="53.11"/><rect x="370.22" y="241.11" width="31.38" height="33.8"/><rect x="206.06" y="364.23" width="74.84" height="74.84"/><rect class="cls-4" x="215.72" y="376.3" width="53.11" height="53.11"/><rect x="227.79" y="385.96" width="31.38" height="33.8"/><rect x="366.32" y="378.72" width="42.53" height="42.53"/><rect class="cls-4" x="371.81" y="385.58" width="30.18" height="30.18"/><rect x="378.67" y="391.06" width="17.83" height="19.21"/><rect x="288.14" y="219.38" width="26.56" height="9.66"/><rect x="302.63" y="219.38" width="12.07" height="19.31"/><rect x="292.12" y="267.98" width="10.5" height="9.66"/><rect x="302.56" y="258.32" width="10.5" height="9.66"/><rect x="317.05" y="241.42" width="10.5" height="9.66"/><rect x="326.77" y="253.18" width="9.66" height="43.45"/><rect x="314.7" y="277.32" width="9.66" height="33.8" transform="translate(613.75 -25.3) rotate(90)"/><rect x="302.63" y="277.32" width="9.66" height="21.73"/><rect x="290.49" y="297.56" width="10.5" height="9.66"/><rect x="206.06" y="306.29" width="9.66" height="38.63"/><rect x="215.72" y="315.95" width="9.66" height="28.97"/><rect x="229" y="319.57" width="9.66" height="21.73" transform="translate(-96.61 564.26) rotate(-90)"/><rect x="237.45" y="325.61" width="7.24" height="24.14"/><rect x="249.52" y="311.12" width="9.66" height="19.31" transform="translate(-66.43 575.12) rotate(-90)"/><rect x="254.35" y="301.46" width="9.66" height="19.31" transform="translate(518.35 622.24) rotate(180)"/><rect x="244.63" y="349.08" width="10.5" height="9.66"/><rect x="262.8" y="331.64" width="7.24" height="24.14" transform="translate(-77.29 610.13) rotate(-90)"/><rect x="278.42" y="349.08" width="9.72" height="7.91"/><rect x="278.49" y="318.36" width="9.66" height="21.73"/><rect x="286.94" y="324.4" width="9.66" height="21.73" transform="translate(-43.5 627.03) rotate(-90)"/><rect x="307.78" y="318.57" width="9.72" height="9.45"/><rect x="317.44" y="327.45" width="9.72" height="9.45"/><rect x="327.1" y="317.8" width="9.72" height="9.45"/><rect x="336.43" y="296.64" width="9.66" height="21.73"/><rect x="344.87" y="302.67" width="9.66" height="21.73" transform="translate(36.17 663.24) rotate(-90)"/><rect x="367.81" y="291.81" width="9.66" height="24.14" transform="translate(68.76 676.52) rotate(-90)"/><rect x="398.13" y="303.31" width="9.72" height="9.45"/><rect x="406.43" y="313.53" width="9.66" height="19.31"/><rect x="396.78" y="332.85" width="9.66" height="24.14"/><rect x="405.38" y="356.42" width="9.72" height="9.45"/><rect x="390.74" y="358.2" width="7.24" height="24.14" transform="translate(764.63 -24.1) rotate(90)"/><rect x="375.05" y="347.33" width="7.24" height="19.31" transform="translate(757.34 713.98) rotate(180)"/><rect x="343.67" y="337.68" width="9.66" height="24.14" transform="translate(696.99 699.49) rotate(180)"/><rect x="330.02" y="340.14" width="7.4" height="7.19"/><rect x="317.11" y="349.75" width="9.66" height="31.38" transform="translate(643.88 730.88) rotate(180)"/><rect x="311.08" y="343.71" width="9.66" height="21.73" transform="translate(-38.67 670.48) rotate(-90)"/><rect x="340.84" y="367.83" width="8.72" height="8.48"/><rect x="361.41" y="319.29" width="8.82" height="8.57"/><rect x="371.52" y="330.93" width="8.82" height="8.57"/><rect x="348.5" y="378.72" width="9.66" height="36.21" transform="translate(706.65 793.64) rotate(180)"/><rect x="285.73" y="381.13" width="12.07" height="24.14" transform="translate(583.53 786.4) rotate(180)"/><rect x="296.73" y="404.53" width="8.72" height="8.48"/><rect x="308.8" y="394.87" width="8.72" height="8.48"/><rect x="318.46" y="404.53" width="8.72" height="8.48"/><rect x="326.77" y="414.93" width="9.66" height="21.73" transform="translate(663.19 851.58) rotate(180)"/><rect x="335.22" y="408.89" width="9.66" height="21.73" transform="translate(-79.71 759.8) rotate(-90)"/></g></svg>